<svg width="20" height="20" viewBox="0 0 20 20" fill="none" xmlns="http://www.w3.org/2000/svg">
<g clip-path="url(#clip0_224_178)">
<path d="M10 0C4.47656 0 0 4.47656 0 10C0 15.5234 4.47656 20 10 20C15.5234 20 20 15.5234 20 10C20 4.47656 15.5234 0 10 0ZM15.832 10.832C15.832 11.293 15.4609 11.6641 15 11.6641H11.668V15C11.668 15.4609 11.2969 15.832 10.8359 15.832H9.16797C8.70703 15.832 8.33594 15.457 8.33594 15V11.668H5C4.53906 11.668 4.16797 11.293 4.16797 10.8359V9.16797C4.16797 8.70703 4.53906 8.33594 5 8.33594H8.33203V5C8.33203 4.53906 8.70312 4.16797 9.16406 4.16797H10.832C11.293 4.16797 11.6641 4.54297 11.6641 5V8.33203H15C15.4609 8.33203 15.832 8.70703 15.832 9.16406V10.832Z" fill="#024A7A"/>
</g>
<defs>
<clipPath id="clip0_224_178">
<rect width="20" height="20" fill="white"/>
</clipPath>
</defs>
</svg>
