<svg width="16" height="16" viewBox="0 0 16 16" fill="none" xmlns="http://www.w3.org/2000/svg">
<g clip-path="url(#clip0_224_17)">
<path d="M12.9777 11.8755C11.8199 11.8625 10.6974 11.4751 9.77789 10.7714C8.85839 10.0677 8.19128 9.0853 7.87622 7.97109C7.56116 6.85688 7.61507 5.67064 8.0299 4.5896C8.44472 3.50857 9.19818 2.59076 10.1777 1.97333C9.68277 1.84466 9.17356 1.77896 8.66216 1.77777C7.01193 1.77777 5.42928 2.43332 4.26239 3.60022C3.0955 4.76711 2.43994 6.34976 2.43994 7.99999C2.43994 9.65023 3.0955 11.2329 4.26239 12.3998C5.42928 13.5667 7.01193 14.2222 8.66216 14.2222C9.59702 14.2214 10.5194 14.0071 11.3589 13.5959C12.1984 13.1846 12.933 12.5871 13.5066 11.8489C13.3309 11.8667 13.1544 11.8756 12.9777 11.8755Z" fill="#0F1E28"/>
</g>
<defs>
<clipPath id="clip0_224_17">
<rect width="16" height="16" fill="white"/>
</clipPath>
</defs>
</svg>
