<svg width="16" height="16" viewBox="0 0 16 16" fill="none" xmlns="http://www.w3.org/2000/svg">
<g clip-path="url(#clip0_224_130)">
<path d="M12 8C12 9.06087 11.5786 10.0783 10.8284 10.8284C10.0783 11.5786 9.06087 12 8 12C6.93913 12 5.92172 11.5786 5.17157 10.8284C4.42143 10.0783 4 9.06087 4 8C4 6.93913 4.42143 5.92172 5.17157 5.17157C5.92172 4.42143 6.93913 4 8 4C9.06087 4 10.0783 4.42143 10.8284 5.17157C11.5786 5.92172 12 6.93913 12 8Z" fill="#F5FBFF"/>
<path fill-rule="evenodd" clip-rule="evenodd" d="M8.00004 0.833313C8.13265 0.833313 8.25983 0.885991 8.35359 0.97976C8.44736 1.07353 8.50004 1.2007 8.50004 1.33331V1.99998C8.50004 2.13259 8.44736 2.25976 8.35359 2.35353C8.25983 2.4473 8.13265 2.49998 8.00004 2.49998C7.86743 2.49998 7.74026 2.4473 7.64649 2.35353C7.55272 2.25976 7.50004 2.13259 7.50004 1.99998V1.33331C7.50004 1.2007 7.55272 1.07353 7.64649 0.97976C7.74026 0.885991 7.86743 0.833313 8.00004 0.833313ZM2.93271 2.93265C3.02646 2.83901 3.15354 2.78642 3.28604 2.78642C3.41854 2.78642 3.54562 2.83901 3.63937 2.93265L3.90137 3.19398C3.9925 3.28824 4.04296 3.41452 4.04188 3.54561C4.0408 3.67671 3.98828 3.80215 3.89562 3.89489C3.80295 3.98764 3.67757 4.04029 3.54647 4.04149C3.41538 4.04269 3.28905 3.99235 3.19471 3.90131L2.93271 3.63931C2.83907 3.54556 2.78648 3.41848 2.78648 3.28598C2.78648 3.15348 2.83907 3.0264 2.93271 2.93265ZM13.0674 2.93265C13.161 3.0264 13.2136 3.15348 13.2136 3.28598C13.2136 3.41848 13.161 3.54556 13.0674 3.63931L12.8054 3.90131C12.7106 3.98963 12.5852 4.03771 12.4557 4.03543C12.3262 4.03314 12.2026 3.98067 12.111 3.88906C12.0194 3.79745 11.9669 3.67386 11.9646 3.54433C11.9623 3.41479 12.0104 3.28943 12.0987 3.19465L12.3607 2.93265C12.4545 2.83901 12.5815 2.78642 12.714 2.78642C12.8465 2.78642 12.9736 2.83901 13.0674 2.93265ZM0.833374 7.99998C0.833374 7.86737 0.886052 7.74019 0.979821 7.64643C1.07359 7.55266 1.20077 7.49998 1.33337 7.49998H2.00004C2.13265 7.49998 2.25983 7.55266 2.35359 7.64643C2.44736 7.74019 2.50004 7.86737 2.50004 7.99998C2.50004 8.13259 2.44736 8.25976 2.35359 8.35353C2.25983 8.4473 2.13265 8.49998 2.00004 8.49998H1.33337C1.20077 8.49998 1.07359 8.4473 0.979821 8.35353C0.886052 8.25976 0.833374 8.13259 0.833374 7.99998ZM13.5 7.99998C13.5 7.86737 13.5527 7.74019 13.6465 7.64643C13.7403 7.55266 13.8674 7.49998 14 7.49998H14.6667C14.7993 7.49998 14.9265 7.55266 15.0203 7.64643C15.114 7.74019 15.1667 7.86737 15.1667 7.99998C15.1667 8.13259 15.114 8.25976 15.0203 8.35353C14.9265 8.4473 14.7993 8.49998 14.6667 8.49998H14C13.8674 8.49998 13.7403 8.4473 13.6465 8.35353C13.5527 8.25976 13.5 8.13259 13.5 7.99998ZM12.0987 12.0986C12.1925 12.005 12.3195 11.9524 12.452 11.9524C12.5845 11.9524 12.7116 12.005 12.8054 12.0986L13.0674 12.3606C13.1165 12.4064 13.1559 12.4616 13.1832 12.523C13.2106 12.5843 13.2253 12.6505 13.2264 12.7176C13.2276 12.7848 13.2153 12.8515 13.1901 12.9137C13.165 12.976 13.1275 13.0325 13.0801 13.08C13.0326 13.1275 12.976 13.1649 12.9138 13.1901C12.8515 13.2152 12.7848 13.2276 12.7177 13.2264C12.6506 13.2252 12.5843 13.2105 12.523 13.1832C12.4617 13.1558 12.4065 13.1164 12.3607 13.0673L12.0987 12.8053C12.0051 12.7116 11.9525 12.5845 11.9525 12.452C11.9525 12.3195 12.0051 12.1924 12.0987 12.0986ZM3.90137 12.0986C3.99501 12.1924 4.0476 12.3195 4.0476 12.452C4.0476 12.5845 3.99501 12.7116 3.90137 12.8053L3.63937 13.0673C3.5936 13.1164 3.5384 13.1558 3.47707 13.1832C3.41573 13.2105 3.34952 13.2252 3.28239 13.2264C3.21525 13.2276 3.14857 13.2152 3.08631 13.1901C3.02405 13.1649 2.96749 13.1275 2.92001 13.08C2.87254 13.0325 2.83511 12.976 2.80996 12.9137C2.78481 12.8515 2.77246 12.7848 2.77365 12.7176C2.77483 12.6505 2.78953 12.5843 2.81685 12.523C2.84418 12.4616 2.88358 12.4064 2.93271 12.3606L3.19404 12.0986C3.24047 12.0522 3.29561 12.0153 3.35629 11.9902C3.41698 11.965 3.48202 11.9521 3.54771 11.9521C3.61339 11.9521 3.67844 11.965 3.73912 11.9902C3.79981 12.0153 3.85494 12.0522 3.90137 12.0986ZM8.00004 13.5C8.13265 13.5 8.25983 13.5527 8.35359 13.6464C8.44736 13.7402 8.50004 13.8674 8.50004 14V14.6666C8.50004 14.7993 8.44736 14.9264 8.35359 15.0202C8.25983 15.114 8.13265 15.1666 8.00004 15.1666C7.86743 15.1666 7.74026 15.114 7.64649 15.0202C7.55272 14.9264 7.50004 14.7993 7.50004 14.6666V14C7.50004 13.8674 7.55272 13.7402 7.64649 13.6464C7.74026 13.5527 7.86743 13.5 8.00004 13.5Z" fill="#F5FBFF"/>
</g>
<defs>
<clipPath id="clip0_224_130">
<rect width="16" height="16" fill="white"/>
</clipPath>
</defs>
</svg>
